<svg xmlns="http://www.w3.org/2000/svg"
     width="1080"
     height="1350"
     viewBox="0 0 1080 1350"
     preserveAspectRatio="xMidYMid meet"
     style="width:100%;height:auto;max-width:1080px;display:block;margin:0 auto;">
<defs>
  <linearGradient id="pmDesk" x1="0" y1="0" x2="0" y2="1">
    <stop offset="0" stop-color="#b07a45"/>
    <stop offset="1" stop-color="#7d4f28"/>
  </linearGradient>
  <pattern id="pmRules" x="0" y="120" width="1080" height="40" patternUnits="userSpaceOnUse">
    <line x1="0" y1="39.5" x2="1080" y2="39.5" stroke="#cfe0f0" stroke-width="1.4"/>
  </pattern>
</defs>
<rect x="0" y="0" width="1080" height="1350" fill="url(#pmDesk)"/>
<path d="M0 420 C 300 380, 700 470, 1080 410" fill="none" stroke="#3a2411" stroke-width="3" opacity=".12"/>
<path d="M0 980 C 350 940, 720 1030, 1080 960" fill="none" stroke="#3a2411" stroke-width="3" opacity=".12"/>
<rect x="40" y="38" width="1012" height="1290" fill="#3a2411" opacity=".18"/>
<rect x="34" y="30" width="1012" height="1290" fill="#fffdf7"/>
<rect x="67" y="120" width="946" height="1152" fill="url(#pmRules)"/>
<rect x="67" y="64" width="946" height="1222" fill="none" stroke="#c0392b" stroke-width="2.4"/>

<defs>
  <linearGradient id="ilSky" x1="0" y1="0" x2="0" y2="1">
    <stop offset="0" stop-color="#ffffff"/>
    <stop offset="1" stop-color="#dff1f7"/>
  </linearGradient>
</defs>

<!-- Shadows -->
<rect x="109" y="888" width="870" height="168" rx="10" fill="#22303f" opacity=".12"/>
<rect x="109" y="1080" width="870" height="176" rx="20" fill="#22303f" opacity=".18"/>

<!-- Key sentence strip -->
<rect x="105" y="882" width="870" height="168" rx="10" fill="#fdf6d8"/>
<rect x="961" y="898" width="6" height="136" rx="3" fill="#e0a55e"/>

<!-- Bullets -->
<circle cx="966" cy="504" r="6" fill="#c0392b"/>
<circle cx="114" cy="584" r="6" fill="#c0392b"/>
<circle cx="966" cy="704" r="6" fill="#c0392b"/>
<circle cx="114" cy="784" r="6" fill="#c0392b"/>

<!-- Icon: chip (transistors) -->
<g transform="translate(130 140)">
  <line x1="18" y1="2" x2="18" y2="10" stroke="#22303f" stroke-width="2.5" stroke-linecap="round"/>
  <line x1="28" y1="2" x2="28" y2="10" stroke="#22303f" stroke-width="2.5" stroke-linecap="round"/>
  <line x1="38" y1="2" x2="38" y2="10" stroke="#22303f" stroke-width="2.5" stroke-linecap="round"/>
  <line x1="18" y1="46" x2="18" y2="54" stroke="#22303f" stroke-width="2.5" stroke-linecap="round"/>
  <line x1="28" y1="46" x2="28" y2="54" stroke="#22303f" stroke-width="2.5" stroke-linecap="round"/>
  <line x1="38" y1="46" x2="38" y2="54" stroke="#22303f" stroke-width="2.5" stroke-linecap="round"/>
  <line x1="2" y1="18" x2="10" y2="18" stroke="#22303f" stroke-width="2.5" stroke-linecap="round"/>
  <line x1="2" y1="28" x2="10" y2="28" stroke="#22303f" stroke-width="2.5" stroke-linecap="round"/>
  <line x1="2" y1="38" x2="10" y2="38" stroke="#22303f" stroke-width="2.5" stroke-linecap="round"/>
  <line x1="46" y1="18" x2="54" y2="18" stroke="#22303f" stroke-width="2.5" stroke-linecap="round"/>
  <line x1="46" y1="28" x2="54" y2="28" stroke="#22303f" stroke-width="2.5" stroke-linecap="round"/>
  <line x1="46" y1="38" x2="54" y2="38" stroke="#22303f" stroke-width="2.5" stroke-linecap="round"/>
  <rect x="10" y="10" width="36" height="36" rx="4" fill="#2f7fb5" stroke="#22303f" stroke-width="2.5" stroke-linejoin="round"/>
  <rect x="19" y="19" width="18" height="18" rx="2" fill="#4fc3e8"/>
</g>

<!-- Face: surprise (important fact) -->
<g transform="translate(900 360)">
  <circle cx="0" cy="0" r="26" fill="#ffd24a" stroke="#22303f" stroke-width="2.5"/>
  <circle cx="-9" cy="-6" r="3.5" fill="#22303f"/>
  <circle cx="9" cy="-6" r="3.5" fill="#22303f"/>
  <circle cx="0" cy="10" r="5" fill="#22303f"/>
</g>

<!-- Icon: two figures (changes in our lives) -->
<g transform="translate(140 488)">
  <path d="M4 50 Q 4 28 18 28 Q 32 28 32 50 Z" fill="#8fc9f2" stroke="#22303f" stroke-width="2.5" stroke-linejoin="round"/>
  <circle cx="18" cy="16" r="8" fill="#e8b98d" stroke="#22303f" stroke-width="2.5"/>
  <path d="M24 52 Q 24 26 40 26 Q 56 26 56 52 Z" fill="#2f7fb5" stroke="#22303f" stroke-width="2.5" stroke-linejoin="round"/>
  <circle cx="40" cy="13" r="9" fill="#d59f6f" stroke="#22303f" stroke-width="2.5"/>
</g>

<!-- Icon: light bulb (emerging technologies) -->
<g transform="translate(140 690)">
  <line x1="28" y1="2" x2="28" y2="-4" stroke="#22303f" stroke-width="2.5" stroke-linecap="round"/>
  <line x1="6" y1="10" x2="2" y2="6" stroke="#22303f" stroke-width="2.5" stroke-linecap="round"/>
  <line x1="50" y1="10" x2="54" y2="6" stroke="#22303f" stroke-width="2.5" stroke-linecap="round"/>
  <circle cx="28" cy="24" r="17" fill="#ffd24a" stroke="#22303f" stroke-width="2.5"/>
  <rect x="20" y="40" width="16" height="12" rx="2" fill="#7f95ab" stroke="#22303f" stroke-width="2.5" stroke-linejoin="round"/>
</g>

<!-- Icon: star (remember) inside strip -->
<g transform="translate(150 890)">
  <polygon points="28,2 34.5,19.1 52.7,20 38.5,31.4 43.3,49 28,39 12.7,49 17.5,31.4 3.3,20 21.5,19.1" fill="#ffd24a" stroke="#22303f" stroke-width="2.5" stroke-linejoin="round"/>
</g>

<!-- Memory illustration: doubling, physical limit, emerging technologies -->
<rect x="105" y="1074" width="870" height="176" rx="20" fill="url(#ilSky)" stroke="#22303f" stroke-width="2.5"/>
<line x1="125" y1="1222" x2="955" y2="1222" stroke="#22303f" stroke-width="2.5" stroke-linecap="round"/>

<rect x="150" y="1207" width="36" height="15" rx="3" fill="#8fc9f2" stroke="#22303f" stroke-width="2.5" stroke-linejoin="round"/>
<rect x="200" y="1192" width="36" height="30" rx="3" fill="#4fc3e8" stroke="#22303f" stroke-width="2.5" stroke-linejoin="round"/>
<rect x="250" y="1162" width="36" height="60" rx="3" fill="#2f7fb5" stroke="#22303f" stroke-width="2.5" stroke-linejoin="round"/>
<rect x="300" y="1102" width="36" height="120" rx="3" fill="#17457f" stroke="#22303f" stroke-width="2.5" stroke-linejoin="round"/>
<line x1="140" y1="1090" x2="360" y2="1090" stroke="#c0392b" stroke-width="3" stroke-linecap="round"/>
<path d="M168 1196 Q 240 1170 300 1110" fill="none" stroke="#c0392b" stroke-width="2.4" stroke-linecap="round"/>
<polygon points="306,1102 296,1106 304,1114" fill="#c0392b"/>

<g transform="translate(450 1156)">
  <path d="M70 -20 Q 85 -32 100 -20" fill="none" stroke="#2f7fb5" stroke-width="3" stroke-linecap="round"/>
  <path d="M62 -30 Q 85 -46 108 -30" fill="none" stroke="#2f7fb5" stroke-width="3" stroke-linecap="round"/>
  <ellipse cx="85" cy="-8" rx="10" ry="6" fill="#ffd24a" stroke="#22303f" stroke-width="2.5"/>
  <path d="M0 50 L0 30 Q 2 18 18 16 L40 0 Q 46 -4 58 -4 L110 -4 Q 122 -4 130 6 L148 18 Q 170 20 172 34 L172 50 Z" fill="#2f7fb5" stroke="#22303f" stroke-width="2.5" stroke-linejoin="round"/>
  <path d="M46 16 L58 4 L82 4 L82 16 Z" fill="#4fc3e8" stroke="#22303f" stroke-width="2.5" stroke-linejoin="round"/>
  <path d="M92 4 L114 4 Q 120 4 126 10 L130 16 L92 16 Z" fill="#4fc3e8" stroke="#22303f" stroke-width="2.5" stroke-linejoin="round"/>
  <circle cx="164" cy="30" r="4" fill="#ffd24a" stroke="#22303f" stroke-width="2"/>
  <circle cx="36" cy="52" r="14" fill="#22303f"/>
  <circle cx="36" cy="52" r="6" fill="#e8dfd1"/>
  <circle cx="138" cy="52" r="14" fill="#22303f"/>
  <circle cx="138" cy="52" r="6" fill="#e8dfd1"/>
</g>

<g transform="translate(690 1132)">
  <path d="M14 4 Q 60 -30 106 4" fill="none" stroke="#7f95ab" stroke-width="3" stroke-linecap="round"/>
  <rect x="0" y="0" width="120" height="56" rx="22" fill="#17457f" stroke="#22303f" stroke-width="2.5" stroke-linejoin="round"/>
  <circle cx="34" cy="28" r="15" fill="#4fc3e8" stroke="#22303f" stroke-width="2.5"/>
  <circle cx="86" cy="28" r="15" fill="#4fc3e8" stroke="#22303f" stroke-width="2.5"/>
  <path d="M48 56 Q 60 42 72 56 Z" fill="#dff1f7" stroke="#22303f" stroke-width="2.5" stroke-linejoin="round"/>
</g>

<g transform="translate(880 1150)">
  <g transform="rotate(0)">
    <ellipse cx="0" cy="0" rx="46" ry="16" fill="none" stroke="#17457f" stroke-width="2.5"/>
    <circle cx="46" cy="0" r="5" fill="#ffd24a" stroke="#22303f" stroke-width="2"/>
  </g>
  <g transform="rotate(60)">
    <ellipse cx="0" cy="0" rx="46" ry="16" fill="none" stroke="#17457f" stroke-width="2.5"/>
    <circle cx="46" cy="0" r="5" fill="#ffd24a" stroke="#22303f" stroke-width="2"/>
  </g>
  <g transform="rotate(-60)">
    <ellipse cx="0" cy="0" rx="46" ry="16" fill="none" stroke="#17457f" stroke-width="2.5"/>
    <circle cx="46" cy="0" r="5" fill="#ffd24a" stroke="#22303f" stroke-width="2"/>
  </g>
  <circle cx="0" cy="0" r="9" fill="#c96a1b" stroke="#22303f" stroke-width="2.5"/>
</g>

<!-- Paragraph -->
<text x="950" y="154" direction="rtl" unicode-bidi="plaintext" text-anchor="start" font-family="Tahoma, Arial, Segoe UI, sans-serif" font-size="30" fill="#225f9c">
  <tspan x="950" dy="0">وطوال الرحلة، ظل عدد <tspan font-weight="bold" fill="#17457f">الترانزستورات</tspan> يتضاعف</tspan>
  <tspan x="950" dy="40">كل عامين تقريبًا <tspan font-weight="bold" fill="#c0392b">(قانون مور)،</tspan></tspan>
  <tspan x="950" dy="40">لكن التصغير يقترب الآن من <tspan font-weight="bold" fill="#17457f">حد فيزيائي.</tspan></tspan>
</text>
<text x="120" y="274" direction="ltr" unicode-bidi="plaintext" text-anchor="start" font-family="Segoe Print, Comic Sans MS, Arial, sans-serif" font-size="29" fill="#152b42">
  <tspan x="120" dy="0">Along the journey, the number of</tspan>
  <tspan x="120" dy="40"><tspan font-weight="bold" fill="#17457f">transistors</tspan> kept doubling about every</tspan>
  <tspan x="120" dy="40">two years <tspan font-weight="bold" fill="#c0392b">(Moore's Law),</tspan></tspan>
  <tspan x="120" dy="40">but miniaturization is now approaching</tspan>
  <tspan x="120" dy="40">a <tspan font-weight="bold" fill="#17457f">physical limit.</tspan></tspan>
</text>

<!-- Bullet 1 -->
<text x="950" y="514" direction="rtl" unicode-bidi="plaintext" text-anchor="start" font-family="Tahoma, Arial, Segoe UI, sans-serif" font-size="30" fill="#225f9c">
  <tspan x="950" dy="0"><tspan font-weight="bold" fill="#17457f">5 تغيرات</tspan> في حياتنا: التواصل، والتسوق،</tspan>
  <tspan x="950" dy="40">والعمل، والتعلم، والدفع.</tspan>
</text>
<text x="132" y="594" direction="ltr" unicode-bidi="plaintext" text-anchor="start" font-family="Segoe Print, Comic Sans MS, Arial, sans-serif" font-size="29" fill="#152b42">
  <tspan x="132" dy="0"><tspan font-weight="bold" fill="#17457f">5 changes</tspan> in our lives: communicating,</tspan>
  <tspan x="132" dy="40">shopping, working, learning, and paying.</tspan>
</text>

<!-- Bullet 2 -->
<text x="950" y="714" direction="rtl" unicode-bidi="plaintext" text-anchor="start" font-family="Tahoma, Arial, Segoe UI, sans-serif" font-size="30" fill="#225f9c">
  <tspan x="950" dy="0"><tspan font-weight="bold" fill="#17457f">4 تقنيات ناشئة:</tspan> القيادة الذاتية،</tspan>
  <tspan x="950" dy="40">وAR، وVR، والحوسبة الكمومية.</tspan>
</text>
<text x="132" y="794" direction="ltr" unicode-bidi="plaintext" text-anchor="start" font-family="Segoe Print, Comic Sans MS, Arial, sans-serif" font-size="29" fill="#152b42">
  <tspan x="132" dy="0"><tspan font-weight="bold" fill="#17457f">4 emerging technologies:</tspan> autonomous</tspan>
  <tspan x="132" dy="40">driving, AR, VR, and quantum computing.</tspan>
</text>

<!-- Key sentence strip text -->
<text x="935" y="914" direction="rtl" unicode-bidi="plaintext" text-anchor="start" font-family="Tahoma, Arial, Segoe UI, sans-serif" font-size="30" font-weight="bold" fill="#17457f">
  <tspan x="935" dy="0">كل مرحلة جابت تقنية جديدة…</tspan>
  <tspan x="935" dy="40">وغيّرت معاها حياة الناس.</tspan>
</text>
<text x="140" y="994" direction="ltr" unicode-bidi="plaintext" text-anchor="start" font-family="Segoe Print, Comic Sans MS, Arial, sans-serif" font-size="29" font-weight="bold" fill="#17457f">
  <tspan x="140" dy="0">Each stage brought a new technology…</tspan>
  <tspan x="140" dy="40">and changed people's lives with it.</tspan>
</text>
</svg>
